<?xml version="1.0" encoding="utf-8"?>
<!-- Generator: Adobe Illustrator 23.0.1, SVG Export Plug-In . SVG Version: 6.00 Build 0)  -->
<svg version="1.1" id="Слой_1" xmlns="http://www.w3.org/2000/svg" xmlns:xlink="http://www.w3.org/1999/xlink" x="0px" y="0px"
	 viewBox="0 0 54.3 54.1" style="enable-background:new 0 0 54.3 54.1;" xml:space="preserve">
<style type="text/css">
	.st0{fill:#55C5CA;}
</style>
<path class="st0" d="M53.4,0.3c-0.9-0.6-2-0.4-2.7,0.4L23.1,35.9L3.2,25.3c-1-0.5-2.2-0.1-2.7,0.8c-0.4,0.8-0.3,1.7,0.3,2.3l23.4,25
	c0.4,0.4,0.9,0.6,1.5,0.6H26c0.6-0.1,1.2-0.5,1.5-1.1l5-9.8L54,3C54.5,2.1,54.2,0.9,53.4,0.3z M28.9,41.3l-3.7,7.3L12,34.5l10.6,5.7
	c0.9,0.5,1.9,0.2,2.5-0.5l14.6-18.5L28.9,41.3z"/>
</svg>
